<svg width="45" height="45" fill="#fff" xmlns="http://www.w3.org/2000/svg">
    <path
        d="M5.625 22.472A18.396 18.396 0 0023.567 41.25a17.865 17.865 0 0015.58-9.485 1.876 1.876 0 00-1.776-2.77l-.207.015a9.721 9.721 0 01-.75.038A14.645 14.645 0 0122.222 14.02c0-2.62.655-5.198 1.905-7.5a1.874 1.874 0 00-1.771-2.77A18.478 18.478 0 005.625 22.472zM19.393 8.124a19.468 19.468 0 00-.915 5.896 18.544 18.544 0 0015.529 18.605 13.875 13.875 0 01-10.44 4.875A14.645 14.645 0 019.375 22.472 14.985 14.985 0 0119.393 8.124z"
        fill="#ebebeba3" />
</svg>