<svg width="45" height="45" viewBox="0 0 45 45" fill="none" xmlns="http://www.w3.org/2000/svg">
<path d="M5.625 22.472C5.52232 27.339 7.35305 32.0483 10.7161 35.5681C14.0791 39.0879 18.7002 41.1311 23.5669 41.2501C26.7763 41.2143 29.9169 40.3145 32.6583 38.6454C35.3998 36.9762 37.641 34.5993 39.1463 31.7645C39.3075 31.4692 39.3864 31.136 39.3746 30.7998C39.3628 30.4636 39.2608 30.1368 39.0792 29.8536C38.8976 29.5703 38.6432 29.3412 38.3426 29.1902C38.042 29.0391 37.7062 28.9718 37.3706 28.9951L37.1644 29.0101C36.9188 29.0289 36.6713 29.0476 36.4144 29.0476C32.5422 28.929 28.8748 27.281 26.2149 24.4644C23.5551 21.6478 22.1195 17.8921 22.2225 14.0195C22.2222 11.3997 22.877 8.82152 24.1275 6.51948C24.2886 6.22453 24.3674 5.8917 24.3557 5.55584C24.3441 5.21998 24.2424 4.89342 24.0613 4.61034C23.8801 4.32725 23.6263 4.09805 23.3262 3.94672C23.0261 3.79538 22.6909 3.72748 22.3556 3.75011C17.7214 4.18961 13.4239 6.36199 10.3221 9.83296C7.22028 13.3039 5.5428 17.8177 5.625 22.472ZM19.3931 8.12448C18.7871 10.0308 18.4784 12.0191 18.4781 14.0195C18.4042 18.4678 19.9319 22.7944 22.7827 26.21C25.6334 29.6255 29.6171 31.9024 34.0069 32.6251C32.7175 34.1381 31.118 35.3565 29.3168 36.1975C27.5156 37.0386 25.5547 37.4828 23.5669 37.5001C19.6947 37.3815 16.0273 35.7335 13.3674 32.9169C10.7076 30.1003 9.27201 26.3446 9.375 22.472C9.33119 19.3324 10.2747 16.2584 12.0723 13.684C13.8698 11.1096 16.4306 9.16491 19.3931 8.12448Z" fill="black"/>
</svg>
