<svg width="37" height="45" viewBox="0 0 37 45" fill="none" xmlns="http://www.w3.org/2000/svg">
<path d="M36.7147 17.2L32.1006 3.79253V0.691314C32.1006 0.475016 31.9994 0.271198 31.8271 0.140417C31.6549 0.00963598 31.4314 -0.0329909 31.223 0.0253684L28.1885 0.874039L25.144 0.0252805C25.0226 -0.00855735 24.8941 -0.00855735 24.7727 0.0252805L21.7278 0.874127L18.683 0.0252805C18.5616 -0.00855735 18.4331 -0.00855735 18.3117 0.0252805L15.2669 0.874127L12.2221 0.0252805C12.1007 -0.00855735 11.9721 -0.00855735 11.8508 0.0252805L8.8058 0.874127L5.84811 0.0496261C5.7684 0.0175461 5.6813 -0.000119867 5.59016 -0.000119867H5.57513C5.22945 -0.000119867 4.93687 0.255202 4.89002 0.597535C4.87886 0.678658 4.88246 0.758726 4.89863 0.834927V3.79367L0.285176 17.2C0.260303 17.2723 0.247559 17.3484 0.247559 17.425V31.2161C0.247559 31.5981 0.557109 31.9075 0.938993 31.9075C1.32088 31.9075 1.63043 31.5981 1.63043 31.2161V17.5406L6.08384 4.59963H25.6243C26.0062 4.59963 26.3158 4.29017 26.3158 3.90819C26.3158 3.52622 26.0062 3.21676 25.6243 3.21676H6.28168V1.60608L8.62009 2.25796C8.74147 2.2918 8.87005 2.2918 8.99143 2.25796L12.0362 1.40912L15.081 2.25796C15.2024 2.2918 15.331 2.2918 15.4523 2.25796L18.4971 1.40912L21.5419 2.25796C21.6633 2.2918 21.7919 2.2918 21.9133 2.25796L24.9581 1.40912L28.0029 2.25796C28.1247 2.2918 28.2532 2.2918 28.3749 2.25779L30.7175 1.60265V3.21667H27.8906C27.5087 3.21667 27.1992 3.52613 27.1992 3.90811C27.1992 4.29008 27.5087 4.59954 27.8906 4.59954H30.4398L26.1035 17.2C26.0787 17.2723 26.0659 17.3484 26.0659 17.425V43.6169H1.63043V33.4825C1.63043 33.1005 1.32088 32.791 0.938993 32.791C0.557109 32.791 0.247559 33.1005 0.247559 33.4825V44.3084C0.247559 44.6903 0.557109 44.9998 0.938993 44.9998H26.7577C26.7802 44.9998 26.8028 44.9986 26.8253 44.9964C26.8362 44.9953 26.8467 44.9933 26.8575 44.9918C26.8687 44.9901 26.88 44.9888 26.8913 44.9866C26.9045 44.9841 26.9174 44.9805 26.9303 44.9772C26.9389 44.975 26.9475 44.9732 26.956 44.9705C26.9697 44.9665 26.983 44.9615 26.9964 44.9566C27.0026 44.9543 27.0091 44.9525 27.0152 44.9501L27.0258 44.9458C27.0263 44.9457 27.0268 44.9455 27.0274 44.9452L36.3186 41.2169C36.5808 41.1116 36.7525 40.8575 36.7525 40.5751V17.4249C36.7523 17.3484 36.7396 17.2723 36.7147 17.2ZM35.3694 40.1075L27.449 43.2858V17.5406L31.4091 6.03303L35.3693 17.5405V40.1075H35.3694Z" fill="black"/>
<path d="M14.9811 30.0108L14.9523 29.982C14.3593 29.389 13.4446 29.0757 12.3069 29.0757C10.3728 29.0755 8.1693 29.9745 7.39525 31.0797C7.06241 31.5548 6.97522 32.0811 7.14986 32.5614C7.43234 33.3385 7.98851 33.9785 8.80299 34.4637C9.14717 34.6688 9.46595 34.9178 9.75353 35.2072C10.0398 35.4917 10.2889 35.8105 10.494 36.1547C10.9793 36.9693 11.6194 37.5254 12.3962 37.8079C12.5579 37.8667 12.7262 37.8965 12.8966 37.8965H12.8968C13.8019 37.8965 14.6684 37.0579 15.2741 35.5958C16.0207 33.7936 16.2458 31.2754 14.9811 30.0108ZM13.9965 35.0664C13.5479 36.1492 13.0535 36.5136 12.8968 36.5135C12.8903 36.5135 12.8818 36.5129 12.8687 36.5081C12.3991 36.3373 11.9999 35.9803 11.6819 35.4468C11.4176 35.003 11.0968 34.5923 10.7313 34.2291C10.365 33.8606 9.95436 33.5398 9.51078 33.2755C8.97737 32.9577 8.62027 32.5584 8.4495 32.0888C8.42788 32.0292 8.48931 31.9281 8.5279 31.873C8.98616 31.2188 10.7368 30.4583 12.3069 30.4583C13.0589 30.4583 13.6512 30.6364 13.9782 30.9634L13.9979 30.9832C14.7461 31.7313 14.5847 33.6468 13.9965 35.0664Z" fill="black"/>
<path d="M16.4992 22.3187C16.1716 22.1944 15.829 22.1316 15.4809 22.1316C14.2942 22.1316 13.2142 22.8773 12.7935 23.987C12.2678 25.3734 12.309 28.4216 13.9497 29.0436C14.135 29.114 14.3339 29.1495 14.5407 29.1495H14.5407C16.1208 29.1495 17.7654 27.0851 18.1675 26.0244C18.7293 24.543 17.981 22.8806 16.4992 22.3187ZM16.8746 25.5342C16.5404 26.4157 15.2305 27.7667 14.5409 27.7666C14.5016 27.7666 14.4687 27.7613 14.4401 27.7505C13.9059 27.5479 13.688 25.529 14.0866 24.4774C14.305 23.9014 14.8654 23.5145 15.4811 23.5145C15.6611 23.5145 15.8386 23.5472 16.009 23.6119C16.7776 23.9033 17.1659 24.7657 16.8746 25.5342Z" fill="black"/>
<path d="M11.8749 24.9971C11.6346 23.8071 10.5801 22.9434 9.36751 22.9434C9.19753 22.9434 9.02631 22.9606 8.85862 22.9944C8.18828 23.1298 7.61075 23.5181 7.23256 24.0878C6.85428 24.6576 6.72051 25.3404 6.85595 26.0107C7.08701 27.1543 8.38902 29.2549 9.82339 29.255H9.82357C9.92262 29.255 10.0213 29.2452 10.1172 29.2259C11.6493 28.9165 12.1331 26.275 11.8749 24.9971ZM9.84352 27.8704C9.83754 27.8716 9.83104 27.8723 9.82366 27.8723H9.82357C9.36012 27.8722 8.38076 26.5751 8.21148 25.737C8.14926 25.4287 8.21078 25.1148 8.38463 24.8527C8.55856 24.5908 8.82408 24.4122 9.13231 24.35C9.21001 24.3342 9.28911 24.3262 9.36742 24.3262C9.92438 24.3262 10.4087 24.7235 10.5194 25.2708C10.707 26.1992 10.2308 27.7922 9.84352 27.8704Z" fill="black"/>
<path d="M22.6388 28.4581C22.2181 27.3484 21.138 26.6028 19.9514 26.6028C19.6033 26.6028 19.2607 26.6657 18.9331 26.7899C18.2451 27.0508 17.3959 27.674 16.77 28.3776C15.932 29.3194 15.6281 30.2535 15.914 31.0078C16.4093 32.3143 18.2996 32.4552 19.0893 32.4552C19.7966 32.4552 20.4822 32.3491 20.9705 32.164C22.4522 31.6023 23.2005 29.9398 22.6388 28.4581ZM20.4803 30.871C20.1525 30.9953 19.6196 31.0724 19.0893 31.0724C18.0428 31.0724 17.3105 30.7903 17.2071 30.5175C17.1366 30.3314 17.293 29.8702 17.8031 29.2968C18.3562 28.6753 19.0306 28.2319 19.4232 28.083C19.5937 28.0185 19.7714 27.9856 19.9513 27.9856C20.5669 27.9856 21.1273 28.3725 21.3457 28.9484C21.6371 29.7171 21.2489 30.5796 20.4803 30.871Z" fill="black"/>
<path d="M19.9603 33.0825C19.7476 33.0395 19.5031 33.0178 19.2335 33.0178C17.9737 33.0178 16.0015 33.5032 15.7315 34.8403C15.587 35.5555 15.9861 36.3369 16.8552 37.0407C17.4935 37.5575 18.3145 37.974 18.9466 38.1017C19.1143 38.1355 19.2856 38.1527 19.4556 38.1527C20.6681 38.1527 21.7227 37.289 21.9631 36.0991C22.2426 34.7152 21.3442 33.3621 19.9603 33.0825ZM20.6075 35.8251C20.4969 36.3724 20.0124 36.7697 19.4555 36.7697C19.3772 36.7697 19.2981 36.7618 19.2203 36.746C18.8685 36.6749 18.242 36.3841 17.7254 35.9658C17.218 35.555 17.0645 35.2254 17.0869 35.1142C17.1426 34.839 18.1474 34.4008 19.2334 34.4008C19.455 34.4008 19.6021 34.4212 19.6865 34.4381C20.3229 34.5666 20.736 35.1889 20.6075 35.8251Z" fill="black"/>
</svg>
