<svg width="45" height="45" viewBox="0 0 45 45" fill="none" xmlns="http://www.w3.org/2000/svg">
    <path
        d="M43.125 30C43.125 30.4973 42.9275 30.9742 42.5758 31.3258C42.2242 31.6775 41.7473 31.875 41.25 31.875H3.75C3.25272 31.875 2.77581 31.6775 2.42417 31.3258C2.07254 30.9742 1.875 30.4973 1.875 30C1.875 29.5027 2.07254 29.0258 2.42417 28.6742C2.77581 28.3225 3.25272 28.125 3.75 28.125H41.25C41.7473 28.125 42.2242 28.3225 42.5758 28.6742C42.9275 29.0258 43.125 29.5027 43.125 30ZM33.75 39.375C34.2473 39.375 34.7242 39.1775 35.0758 38.8258C35.4275 38.4742 35.625 37.9973 35.625 37.5C35.625 37.0027 35.4275 36.5258 35.0758 36.1742C34.7242 35.8225 34.2473 35.625 33.75 35.625H11.25C10.7527 35.625 10.2758 35.8225 9.92418 36.1742C9.57254 36.5258 9.375 37.0027 9.375 37.5C9.375 37.9973 9.57254 38.4742 9.92418 38.8258C10.2758 39.1775 10.7527 39.375 11.25 39.375H33.75ZM13.125 22.5C13.125 22.9973 13.3225 23.4742 13.6742 23.8258C14.0258 24.1775 14.5027 24.375 15 24.375C15.4973 24.375 15.9742 24.1775 16.3258 23.8258C16.6775 23.4742 16.875 22.9973 16.875 22.5C16.875 21.0082 17.4676 19.5774 18.5225 18.5225C19.5774 17.4676 21.0082 16.875 22.5 16.875C23.9918 16.875 25.4226 17.4676 26.4775 18.5225C27.5324 19.5774 28.125 21.0082 28.125 22.5C28.125 22.9973 28.3225 23.4742 28.6742 23.8258C29.0258 24.1775 29.5027 24.375 30 24.375C30.4973 24.375 30.9742 24.1775 31.3258 23.8258C31.6775 23.4742 31.875 22.9973 31.875 22.5C31.875 20.0136 30.8873 17.629 29.1291 15.8709C27.371 14.1127 24.9864 13.125 22.5 13.125C20.0136 13.125 17.629 14.1127 15.8709 15.8709C14.1127 17.629 13.125 20.0136 13.125 22.5ZM20.625 9.375C20.625 9.87228 20.8225 10.3492 21.1742 10.7008C21.5258 11.0525 22.0027 11.25 22.5 11.25C22.9973 11.25 23.4742 11.0525 23.8258 10.7008C24.1775 10.3492 24.375 9.87228 24.375 9.375V7.5C24.375 7.00272 24.1775 6.52581 23.8258 6.17417C23.4742 5.82254 22.9973 5.625 22.5 5.625C22.0027 5.625 21.5258 5.82254 21.1742 6.17417C20.8225 6.52581 20.625 7.00272 20.625 7.5V9.375ZM33.75 22.5C33.75 22.9973 33.9475 23.4742 34.2992 23.8258C34.6508 24.1775 35.1277 24.375 35.625 24.375H37.5C37.9973 24.375 38.4742 24.1775 38.8258 23.8258C39.1775 23.4742 39.375 22.9973 39.375 22.5C39.375 22.0027 39.1775 21.5258 38.8258 21.1742C38.4742 20.8225 37.9973 20.625 37.5 20.625H35.625C35.1277 20.625 34.6508 20.8225 34.2992 21.1742C33.9475 21.5258 33.75 22.0027 33.75 22.5ZM7.5 20.625C7.00272 20.625 6.52581 20.8225 6.17417 21.1742C5.82254 21.5258 5.625 22.0027 5.625 22.5C5.625 22.9973 5.82254 23.4742 6.17417 23.8258C6.52581 24.1775 7.00272 24.375 7.5 24.375H9.375C9.87228 24.375 10.3492 24.1775 10.7008 23.8258C11.0525 23.4742 11.25 22.9973 11.25 22.5C11.25 22.0027 11.0525 21.5258 10.7008 21.1742C10.3492 20.8225 9.87228 20.625 9.375 20.625H7.5ZM10.5675 10.5675C10.216 10.9191 10.0185 11.3959 10.0185 11.8931C10.0185 12.3903 10.216 12.8671 10.5675 13.2188L11.8931 14.5444C12.2468 14.8859 12.7204 15.0749 13.212 15.0706C13.7036 15.0664 14.1739 14.8692 14.5215 14.5215C14.8692 14.1739 15.0664 13.7036 15.0706 13.212C15.0749 12.7204 14.8859 12.2468 14.5444 11.8931L13.2188 10.5675C12.8671 10.216 12.3903 10.0185 11.8931 10.0185C11.3959 10.0185 10.9191 10.216 10.5675 10.5675ZM31.7813 10.5675L30.4556 11.8931C30.2765 12.0661 30.1337 12.273 30.0354 12.5017C29.9372 12.7305 29.8854 12.9765 29.8833 13.2255C29.8811 13.4745 29.9286 13.7214 30.0228 13.9518C30.1171 14.1822 30.2563 14.3916 30.4324 14.5676C30.6084 14.7437 30.8178 14.8829 31.0482 14.9772C31.2786 15.0714 31.5255 15.1189 31.7745 15.1167C32.0235 15.1146 32.2695 15.0628 32.4983 14.9646C32.727 14.8663 32.9339 14.7235 33.1069 14.5444L34.4325 13.2188C34.6116 13.0458 34.7544 12.8389 34.8527 12.6101C34.951 12.3814 35.0027 12.1353 35.0048 11.8864C35.007 11.6374 34.9596 11.3905 34.8653 11.1601C34.771 10.9297 34.6318 10.7203 34.4557 10.5443C34.2797 10.3682 34.0703 10.229 33.8399 10.1347C33.6095 10.0404 33.3626 9.99299 33.1136 9.99516C32.8647 9.99732 32.6186 10.049 32.3899 10.1473C32.1611 10.2456 31.9542 10.3884 31.7813 10.5675Z"
        fill="#ebebeba3" />
</svg>