<svg width="45" height="45" viewBox="0 0 45 45" fill="none" xmlns="http://www.w3.org/2000/svg">
<g clip-path="url(#clip0_24_25)">
<path d="M17.7649 10.2603C16.1296 10.2603 14.7992 11.5907 14.7992 13.2259C14.7992 13.6152 15.1148 13.9307 15.504 13.9307C15.8933 13.9307 16.2088 13.6151 16.2088 13.2259C16.2088 12.368 16.9068 11.6698 17.7649 11.6698C18.6229 11.6698 19.321 12.3679 19.321 13.2259C19.321 13.6152 19.6366 13.9307 20.0258 13.9307C20.415 13.9307 20.7306 13.6151 20.7306 13.2259C20.7306 11.5907 19.4002 10.2603 17.7649 10.2603Z" fill="black"/>
<path d="M27.2344 10.2603C25.5991 10.2603 24.2686 11.5907 24.2686 13.2259C24.2686 13.6152 24.5841 13.9307 24.9734 13.9307C25.3628 13.9307 25.6782 13.6151 25.6782 13.2259C25.6782 12.368 26.3762 11.6698 27.2344 11.6698C28.0924 11.6698 28.7905 12.3679 28.7905 13.2259C28.7905 13.6152 29.106 13.9307 29.4953 13.9307C29.8847 13.9307 30.2001 13.6151 30.2001 13.2259C30.2002 11.5907 28.8698 10.2603 27.2344 10.2603Z" fill="black"/>
<path d="M22.4997 15.105C20.8644 15.105 19.534 16.4354 19.534 18.0707C19.534 18.4599 19.8496 18.7755 20.2388 18.7755C20.6279 18.7755 20.9436 18.4599 20.9436 18.0707C20.9436 17.2127 21.6416 16.5146 22.4997 16.5146C23.3576 16.5146 24.0558 17.2126 24.0558 18.0707C24.0558 18.4599 24.3712 18.7755 24.7606 18.7755C25.1499 18.7755 25.4654 18.4599 25.4654 18.0707C25.4654 16.4354 24.135 15.105 22.4997 15.105Z" fill="black"/>
<path d="M11.7747 15.105C10.1394 15.105 8.80902 16.4354 8.80902 18.0707C8.80902 18.4599 9.12464 18.7755 9.51382 18.7755C9.903 18.7755 10.2186 18.4599 10.2186 18.0707C10.2186 17.2127 10.9166 16.5146 11.7747 16.5146C12.6327 16.5146 13.3308 17.2126 13.3308 18.0707C13.3308 18.4599 13.6464 18.7755 14.0356 18.7755C14.4249 18.7755 14.7404 18.4599 14.7404 18.0707C14.7404 16.4353 13.41 15.105 11.7747 15.105Z" fill="black"/>
<path d="M33.2245 15.105C31.5892 15.105 30.2587 16.4354 30.2587 18.0707C30.2587 18.4599 30.5742 18.7755 30.9635 18.7755C31.3529 18.7755 31.6683 18.4599 31.6683 18.0707C31.6683 17.2127 32.3663 16.5146 33.2245 16.5146C34.0825 16.5146 34.7806 17.2126 34.7806 18.0707C34.7806 18.4599 35.0961 18.7755 35.4854 18.7755C35.8747 18.7755 36.1902 18.4599 36.1902 18.0707C36.1902 16.4354 34.8599 15.105 33.2245 15.105Z" fill="black"/>
<path d="M26.1069 34.4793C25.764 32.9336 24.2866 30.6975 22.5123 30.6975H22.4871V30.6976C20.7129 30.6976 19.2355 32.9336 18.8925 34.4792C18.5653 35.9535 19.2826 36.4642 19.6063 36.6152C20.2067 36.8954 20.9057 36.9452 21.6356 36.7604C21.9127 36.6902 22.1991 36.6547 22.4869 36.6547H22.5124C22.8001 36.6547 23.0866 36.6902 23.3636 36.7604C23.6523 36.8335 23.938 36.8705 24.2128 36.8705H24.2129C24.633 36.8705 25.03 36.7846 25.393 36.6152C25.7166 36.4642 26.4341 35.9537 26.1069 34.4793ZM24.7611 35.3539C24.5938 35.4259 24.414 35.461 24.2128 35.461C24.0545 35.461 23.8853 35.4384 23.7096 35.394C23.3195 35.2952 22.9166 35.2451 22.5123 35.2451H22.4868C22.0824 35.2451 21.6796 35.2952 21.2895 35.394C20.8938 35.4943 20.5363 35.4818 20.238 35.3539C20.1757 35.1736 20.2349 34.4888 20.7591 33.5914C21.2778 32.7037 21.9721 32.1073 22.4869 32.1073H22.5119C23.0268 32.1072 23.7212 32.7036 24.2399 33.5914C24.7642 34.4889 24.8233 35.1737 24.7611 35.3539Z" fill="black"/>
<path d="M22.1734 26.9521C21.7926 26.1059 20.9468 25.5593 20.0187 25.5593C19.6834 25.5593 19.3575 25.6296 19.0499 25.768C17.8623 26.3026 17.331 27.7038 17.8657 28.8915C18.298 29.8518 19.4237 30.6041 20.4282 30.6042H20.4283C20.7062 30.6042 20.9688 30.5494 21.2087 30.4414C22.4155 29.898 22.7132 28.1511 22.1734 26.9521ZM20.6302 29.1557C20.5734 29.1813 20.5055 29.1942 20.4285 29.1942H20.4284C19.976 29.1942 19.3552 28.7658 19.1512 28.3126C19.0468 28.0806 19.0389 27.8218 19.1291 27.584C19.2192 27.3461 19.3967 27.1576 19.6286 27.0532C19.753 26.9972 19.8841 26.9689 20.0186 26.9689C20.3931 26.9689 20.7343 27.1894 20.888 27.5307C21.1468 28.1053 21.007 28.9861 20.6302 29.1557Z" fill="black"/>
<path d="M18.1782 29.7034C17.8289 29.4715 17.4231 29.3489 17.0048 29.3489C16.2906 29.3489 15.6286 29.7039 15.2339 30.2983C14.5862 31.2739 14.8529 32.5948 15.8287 33.2425C16.2823 33.5437 16.9254 33.7235 17.5486 33.7235C18.3146 33.7235 18.9174 33.4512 19.2457 32.9567C19.9506 31.8951 19.0701 30.2955 18.1782 29.7034ZM18.0715 32.177C18.0364 32.2299 17.8635 32.3139 17.5489 32.3139H17.5488C17.2131 32.3139 16.8263 32.2129 16.6084 32.0681C16.2802 31.8502 16.1905 31.406 16.4084 31.0779C16.5412 30.8779 16.7642 30.7585 17.0048 30.7585C17.1448 30.7585 17.2809 30.7997 17.3986 30.8778C17.8672 31.189 18.198 31.9866 18.0715 32.177Z" fill="black"/>
<path d="M25.9492 25.7677C25.6417 25.6293 25.3158 25.5591 24.9805 25.5591C24.0523 25.5591 23.2066 26.1058 22.8255 26.9519C22.5794 27.4988 22.5055 28.1998 22.6283 28.8272C22.7791 29.5985 23.1918 30.1718 23.7901 30.4411C24.0302 30.5491 24.2927 30.6038 24.5706 30.6038C25.5752 30.6038 26.7009 29.8517 27.1332 28.8912C27.6681 27.7036 27.1369 26.3024 25.9492 25.7677ZM25.848 28.3126C25.644 28.7658 25.0233 29.1942 24.5708 29.1942C24.4937 29.1942 24.4258 29.1812 24.3691 29.1557C24.1316 29.0488 24.0402 28.7012 24.0119 28.5567C23.9441 28.2103 23.9822 27.8172 24.1111 27.5307C24.2648 27.1895 24.6061 26.9689 24.9806 26.9689C25.1151 26.9689 25.2463 26.9973 25.3705 27.0532C25.6025 27.1576 25.78 27.3462 25.8701 27.584C25.9603 27.8218 25.9524 28.0806 25.848 28.3126Z" fill="black"/>
<path d="M29.7651 30.2981C29.3704 29.7037 28.7084 29.3489 27.9943 29.3489C27.5761 29.3488 27.1703 29.4715 26.8208 29.7034C26.3778 29.9976 25.9673 30.5059 25.7227 31.0633C25.4079 31.7805 25.4188 32.453 25.7533 32.9568C26.0815 33.4512 26.6842 33.7235 27.4504 33.7235C28.0738 33.7235 28.7168 33.5437 29.1705 33.2424C30.1462 32.5946 30.4131 31.2738 29.7651 30.2981ZM28.3907 32.068C28.1727 32.2128 27.786 32.3138 27.4504 32.3138C27.1356 32.3138 26.9628 32.2298 26.9276 32.177C26.8917 32.1229 26.8832 31.9264 27.0134 31.6297C27.1683 31.2767 27.4199 30.9977 27.6005 30.8778C27.7181 30.7998 27.8542 30.7585 27.9942 30.7585C28.235 30.7584 28.458 30.8778 28.5908 31.0778C28.8086 31.406 28.7189 31.8502 28.3907 32.068Z" fill="black"/>
<path d="M44.8517 28.9678C44.2076 25.2922 41.8253 20.4242 40.6277 18.1376C40.66 18.0892 40.6926 18.0411 40.7229 17.9924C41.5136 16.7233 41.4804 15.6015 41.3133 14.8839C40.9745 13.4281 39.7495 12.3303 38.4643 12.3303C38.1729 12.3303 37.8848 12.3579 37.6019 12.4126C36.9459 10.6785 35.2672 9.4842 33.3616 9.4842C33.0939 9.4842 32.8291 9.5074 32.5686 9.55337C31.9812 7.70617 30.2447 6.39273 28.2484 6.39273C27.5182 6.39273 26.8151 6.56333 26.1793 6.89099C25.3365 5.71395 23.9855 5.00854 22.4997 5.00854C21.0137 5.00854 19.6627 5.71387 18.82 6.89099C18.1843 6.56342 17.4811 6.39273 16.7509 6.39273C14.7547 6.39273 13.0179 7.70617 12.4307 9.55337C12.1703 9.5074 11.9055 9.4842 11.6378 9.4842C9.73224 9.4842 8.05353 10.6785 7.39751 12.4126C7.11468 12.358 6.8264 12.3303 6.53504 12.3303C5.24973 12.3303 4.02489 13.4281 3.68607 14.8838C3.51899 15.6015 3.48577 16.7233 4.27652 17.9925C4.30684 18.0411 4.33936 18.0891 4.37153 18.1374C3.69354 19.4322 2.59992 21.6244 1.67452 23.9551C1.5309 24.317 1.70783 24.7267 2.0695 24.8702C2.15484 24.9041 2.24282 24.9202 2.32948 24.9202C2.60985 24.9202 2.87502 24.7517 2.98479 24.4753C3.77915 22.4744 4.70305 20.5739 5.3654 19.2833C5.44459 19.3563 5.5265 19.4286 5.61079 19.5C5.6136 19.5025 5.61641 19.505 5.61922 19.5072C5.62081 19.5086 5.62248 19.51 5.62406 19.5113C5.68365 19.5616 5.74447 19.6115 5.80643 19.6609C5.80942 19.6633 5.81232 19.6657 5.8154 19.6681C5.81988 19.6717 5.82454 19.6752 5.82902 19.6787C5.97896 19.7975 6.13611 19.9141 6.30038 20.0283C6.31347 20.0375 6.32639 20.0466 6.33966 20.0558C6.34362 20.0585 6.34766 20.0611 6.35162 20.0639C6.40795 20.1024 6.465 20.1408 6.52292 20.1789C6.53847 20.1893 6.55403 20.1996 6.56994 20.21C6.58207 20.2179 6.59455 20.2256 6.60676 20.2335C6.65967 20.2676 6.71311 20.3016 6.76734 20.3353C6.78175 20.3443 6.79573 20.3532 6.81049 20.3622C6.83994 20.3803 6.87035 20.3986 6.90172 20.4174C6.9433 20.4423 6.98487 20.4673 7.02706 20.492C7.03839 20.4987 7.04947 20.5054 7.06116 20.5122C7.09341 20.5309 7.12681 20.5496 7.16012 20.5683C7.2053 20.594 7.25021 20.6199 7.29618 20.6453C7.30488 20.6503 7.31332 20.655 7.32237 20.66C7.37528 20.6891 7.4303 20.7183 7.49024 20.75C7.51995 20.7658 7.54904 20.7817 7.57919 20.7974C7.58446 20.8001 7.58947 20.8029 7.59474 20.8057C7.67912 20.8495 7.76542 20.8933 7.85314 20.9366C7.8585 20.9392 7.86369 20.9421 7.86905 20.9447C7.86958 20.945 7.87028 20.9454 7.87089 20.9457C7.95017 20.9874 8.03648 21.0313 8.13316 21.079C10.4964 22.2519 13.9676 23.0775 17.9152 23.4399C17.9154 23.4399 17.9156 23.4399 17.9158 23.44C18.8703 23.5427 19.8215 23.6135 20.743 23.6506C22.7178 23.7303 24.7175 23.6711 26.6867 23.4746C26.765 23.4681 26.8408 23.4609 26.9179 23.4541C27.0855 23.4393 27.2527 23.424 27.419 23.4075C27.5761 23.392 27.7321 23.3759 27.8861 23.3591C27.9521 23.3518 28.018 23.3445 28.0838 23.337C28.3052 23.3117 28.5252 23.2856 28.7432 23.2572C28.8128 23.2481 28.8784 23.2289 28.9394 23.2017C28.9419 23.2006 28.9445 23.1999 28.947 23.1987C28.9602 23.1928 28.9726 23.1856 28.9851 23.1789C28.9928 23.1747 29.0007 23.1712 29.0082 23.1668C29.0226 23.1585 29.0361 23.1491 29.0498 23.1397C29.055 23.1361 29.0604 23.1331 29.0654 23.1294C29.0791 23.1195 29.092 23.1087 29.1049 23.0978C29.1093 23.094 29.1141 23.0907 29.1185 23.0869C29.1297 23.0769 29.1402 23.0661 29.1507 23.0555C29.1561 23.0501 29.1619 23.0451 29.1671 23.0396C29.1765 23.0296 29.185 23.0187 29.1939 23.0081C29.1995 23.0013 29.2056 22.995 29.2109 22.9881C29.221 22.9749 29.2302 22.9611 29.2394 22.9472C29.2426 22.9422 29.2464 22.9376 29.2495 22.9325C29.26 22.9158 29.2694 22.8985 29.2785 22.881C29.2798 22.8785 29.2814 22.8761 29.2827 22.8735C29.3024 22.8341 29.3184 22.7928 29.3305 22.7499C29.3309 22.7487 29.3314 22.7476 29.3317 22.7464C29.3562 22.6581 29.3638 22.5636 29.3513 22.467C29.3491 22.4507 29.3457 22.435 29.3426 22.4192C29.3411 22.4115 29.3401 22.4037 29.3384 22.396C29.338 22.3945 29.3374 22.393 29.337 22.3915C29.2592 22.0693 28.9651 21.8442 28.6332 21.8534C28.6094 21.854 28.5855 21.8559 28.5613 21.859C28.5588 21.8593 28.5563 21.8596 28.5538 21.86C28.3454 21.887 28.1353 21.9119 27.9244 21.9361C27.8588 21.9437 27.793 21.951 27.7268 21.9582C27.5803 21.9742 27.4329 21.9893 27.2854 22.004C27.1148 22.0207 26.9418 22.0368 26.7661 22.0523C25.382 22.1738 23.9543 22.2367 22.4997 22.2367C21.054 22.2367 19.6409 22.176 18.287 22.0602C18.2115 22.0525 18.1363 22.0458 18.0608 22.0377C18.0572 22.0374 18.0536 22.0369 18.0499 22.0366C14.3158 21.6938 11.0578 20.9253 8.87364 19.8716L8.83558 19.8535C8.80227 19.8373 8.76958 19.8209 8.7367 19.8047C8.66437 19.7685 8.59204 19.7323 8.52208 19.6953C8.52067 19.6945 8.51926 19.6939 8.51786 19.6931C8.51487 19.6916 8.51188 19.6901 8.50872 19.6886C8.5059 19.6871 8.503 19.6856 8.50019 19.6842C8.49246 19.6804 8.48516 19.6764 8.47743 19.6727C8.40334 19.6361 8.33056 19.5993 8.25919 19.5623C8.1953 19.5291 8.13254 19.4955 8.07041 19.4617C8.05986 19.4561 8.04914 19.4505 8.03885 19.4448C5.82542 18.2334 4.71747 16.6705 5.05892 15.2034C5.26933 14.2995 5.98889 13.74 6.53504 13.74C6.91236 13.74 7.28176 13.8068 7.63315 13.9389C7.82712 14.0119 8.0436 13.9956 8.22465 13.8946C8.40571 13.7934 8.53306 13.6178 8.57288 13.4143C8.85835 11.9538 10.1473 10.8938 11.6378 10.8938C12.008 10.8938 12.37 10.9578 12.7137 11.0839C12.9148 11.1576 13.1384 11.1361 13.3213 11.0253C13.5045 10.9144 13.6274 10.7264 13.6553 10.5142C13.8587 8.96819 15.1896 7.80241 16.751 7.80241C17.4356 7.80241 18.0856 8.01994 18.6308 8.43153C18.799 8.55836 19.0149 8.60345 19.22 8.5544C19.4249 8.50527 19.5971 8.36693 19.6893 8.17744C20.2173 7.09234 21.2943 6.41831 22.4998 6.41831C23.7054 6.41831 24.7824 7.09243 25.3103 8.17744C25.4025 8.36693 25.5747 8.50519 25.7796 8.5544C25.9846 8.60345 26.2007 8.55854 26.3689 8.43145C26.914 8.01994 27.564 7.80232 28.2486 7.80232C29.8101 7.80232 31.1408 8.96819 31.3443 10.5141C31.3722 10.7263 31.4951 10.9144 31.6782 11.0252C31.8613 11.136 32.0849 11.1575 32.2859 11.0838C32.6296 10.9577 32.9917 10.8937 33.3618 10.8937C34.8523 10.8937 36.1414 11.9538 36.4267 13.4142C36.4665 13.6177 36.5938 13.7934 36.7749 13.8945C36.9559 13.9956 37.1724 14.0118 37.3664 13.9388C37.7178 13.8068 38.0872 13.7399 38.4646 13.7399C39.0106 13.7399 39.7303 14.2994 39.9407 15.2034C40.3053 16.7691 39.0187 18.4441 36.4994 19.6843C36.4935 19.6872 36.4877 19.6902 36.4819 19.6933C36.0626 19.9144 35.5915 20.1252 35.0762 20.3243C35.0524 20.3335 35.029 20.3429 35.0051 20.352C33.823 20.8025 32.4089 21.1909 30.8305 21.4952C30.4482 21.5689 30.1981 21.9386 30.2718 22.3208C30.3415 22.6822 30.6762 22.9247 31.0351 22.8881C31.0599 22.8861 31.0848 22.8828 31.1098 22.878C32.8543 22.5434 34.4106 22.1069 35.7357 21.5801C36.045 21.4702 36.3276 21.3615 36.5994 21.2479C37.4031 20.9119 38.182 20.392 38.6991 20.0294C38.7002 20.0288 38.7075 20.0237 38.7085 20.023C38.7102 20.0218 38.7182 20.0163 38.7198 20.0151L38.7348 20.0046C38.7445 19.9979 38.7587 19.9877 38.776 19.9752C38.8922 19.8928 39.0043 19.8092 39.113 19.7245C39.1244 19.7155 39.1363 19.7066 39.1475 19.6977C39.289 19.5892 39.4683 19.4487 39.6441 19.3023C40.8664 21.6839 42.9073 25.9969 43.4677 29.2366C43.4712 29.2561 43.4754 29.2756 43.4803 29.2947C43.5532 29.5733 43.5901 29.8534 43.5898 30.1302C43.5893 30.1447 43.5887 30.1592 43.5885 30.1737C43.5883 30.1832 43.5884 30.1928 43.5887 30.2023C43.5891 30.2218 43.5888 30.239 43.5874 30.2531C43.5864 30.2635 43.5857 30.2738 43.5852 30.2842C43.4832 32.3717 41.2622 34.4605 37.492 36.015C33.4768 37.6705 28.1531 38.5821 22.5012 38.5821C16.8663 38.5821 11.554 37.6753 7.54236 36.0285C3.77449 34.4817 1.54224 32.4006 1.41814 30.3189C1.41709 30.3016 1.41542 30.2845 1.41313 30.2673C1.40909 30.2371 1.40812 30.2085 1.41032 30.1799C1.41164 30.1623 1.41225 30.1447 1.41225 30.1271C1.41225 29.8621 1.44653 29.5916 1.5142 29.3232C1.5186 29.3055 1.52247 29.2875 1.52554 29.2693C1.65738 28.4954 1.88704 27.6014 2.20836 26.6123C2.3286 26.2421 2.12592 25.8445 1.75582 25.7243C1.38544 25.604 0.988003 25.8066 0.867769 26.1768C0.529039 27.2196 0.284439 28.1713 0.140562 29.0061C0.0510895 29.37 0.00477111 29.7387 0.00274963 30.1026C-0.0035785 30.21 -0.000238653 30.3186 0.0125055 30.4266C0.185738 33.0996 2.66847 35.5514 7.00702 37.3323C11.1845 39.0473 16.687 39.9916 22.5012 39.9916C28.3331 39.9916 33.8477 39.0421 38.0292 37.3181C42.3809 35.5239 44.8529 33.0558 44.9924 30.3668C44.9972 30.3089 44.9991 30.2485 44.9982 30.1868C44.9991 30.1668 44.9997 30.1469 44.9997 30.1268C44.9996 29.7431 44.9498 29.3532 44.8517 28.9678Z" fill="black"/>
</g>
<defs>
<clipPath id="clip0_24_25">
<rect width="45" height="45" fill="white"/>
</clipPath>
</defs>
</svg>
